<?xml version="1.0" encoding="utf-8"?>
<!-- Generator: Adobe Illustrator 16.0.4, SVG Export Plug-In . SVG Version: 6.00 Build 0)  -->
<svg version="1.2" baseProfile="tiny" id="Layer_1" xmlns="http://www.w3.org/2000/svg" xmlns:xlink="http://www.w3.org/1999/xlink"
	 x="0px" y="0px" width="350px" height="350px" viewBox="0 0 350 350" xml:space="preserve">
<circle fill="none" stroke="#231F20" stroke-miterlimit="10" cx="171.01" cy="175" r="117.184"/>
<g>
	<g>
		<circle fill="#FFFF00" cx="197.586" cy="178.053" r="24.173"/>
		<circle fill="#FFFF00" stroke="#231F20" stroke-miterlimit="10" cx="197.586" cy="178.053" r="24.173"/>
	</g>
	<g>
		<path fill="#FFFFFF" d="M212.351,192.242c0,13.349-10.822,24.172-24.174,24.172c-13.351,0-24.173-10.823-24.173-24.172
			c0-13.353,10.822-24.175,24.173-24.175C201.528,168.067,212.351,178.89,212.351,192.242z"/>
		<path fill="#00C3FF" stroke="#231F20" stroke-miterlimit="10" d="M212.351,192.242c0,13.349-10.822,24.172-24.174,24.172
			c-13.351,0-24.173-10.823-24.173-24.172c0-13.353,10.822-24.175,24.173-24.175C201.528,168.067,212.351,178.89,212.351,192.242z"
			/>
	</g>
	<g>
		<circle fill="#00C3FF" cx="188.177" cy="159.179" r="24.173"/>
		<circle fill="#00C3FF" stroke="#231F20" stroke-miterlimit="10" cx="188.177" cy="159.179" r="24.173"/>
	</g>
	<g>
		<circle fill="#00C3FF" cx="144.434" cy="175.755" r="24.173"/>
		<circle fill="#00C3FF" stroke="#231F20" stroke-miterlimit="10" cx="144.434" cy="175.755" r="24.173"/>
	</g>
	<g>
		<circle fill="#CDCDCD" cx="153.729" cy="193.586" r="24.173"/>
		<circle fill="#FCEE21" stroke="#231F20" stroke-miterlimit="10" cx="153.729" cy="193.586" r="24.173"/>
	</g>
	<g>
		<circle fill="#FFFF00" cx="153.729" cy="156.413" r="24.173"/>
		<circle fill="#FFFF00" stroke="#231F20" stroke-miterlimit="10" cx="153.729" cy="156.413" r="24.173"/>
	</g>
</g>
<g>
	<circle fill="none" stroke="#231F20" stroke-miterlimit="10" cx="171.011" cy="175" r="162.998"/>
	<path fill="#37B34A" stroke="#231F20" stroke-miterlimit="10" d="M100.947,86.771c0,4.143-3.354,7.5-7.5,7.5s-7.5-3.357-7.5-7.5
		c0-4.14,3.354-7.5,7.5-7.5S100.947,82.631,100.947,86.771z"/>
	<circle fill="#37B34A" stroke="#231F20" stroke-miterlimit="10" cx="259.668" cy="252.532" r="7.5"/>
	<circle fill="#37B34A" stroke="#231F20" stroke-miterlimit="10" cx="322.52" cy="113.938" r="7.5"/>
</g>
<text transform="matrix(1 0 0 1 70.4976 81.7051)" fill="#231F20" font-family="'Courier'" font-size="24">1</text>
<text transform="matrix(1 0 0 1 147.1006 162.3721)" fill="#231F20" font-family="'Courier'" font-size="24">2</text>
<text transform="matrix(1 0 0 1 181.5488 165.1377)" fill="#231F20" font-family="'Courier'" font-size="24">3</text>
<text transform="matrix(1 0 0 1 102.8823 183.3516)" fill="#231F20" font-family="'Courier'" font-size="24">3</text>
<text transform="matrix(1 0 0 1 181.5488 202.2266)" fill="#231F20" font-family="'Courier'" font-size="24">3</text>
<text transform="matrix(1 0 0 1 221.7598 183.3516)" fill="#231F20" font-family="'Courier'" font-size="24">2</text>
<text transform="matrix(1 0 0 1 147.1006 202.2266)" fill="#231F20" font-family="'Courier'" font-size="24">2</text>
<text transform="matrix(1 0 0 1 327.585 108.8721)" fill="#231F20" font-family="'Courier'" font-size="24">1</text>
<text transform="matrix(1 0 0 1 269.585 268.2056)" fill="#231F20" font-family="'Courier'" font-size="24">1</text>
</svg>
