<?xml version="1.0" encoding="utf-8"?>
<!-- Generator: Adobe Illustrator 16.0.4, SVG Export Plug-In . SVG Version: 6.00 Build 0)  -->
<svg version="1.2" baseProfile="tiny" id="Layer_1" xmlns="http://www.w3.org/2000/svg" xmlns:xlink="http://www.w3.org/1999/xlink"
	 x="0px" y="0px" width="350px" height="350px" viewBox="0 0 350 350" xml:space="preserve">
<circle fill="#CCCCCC" stroke="#666666" stroke-miterlimit="10" cx="175" cy="175" r="170.475"/>
<circle fill="#FFFFFF" stroke="#666666" stroke-miterlimit="10" cx="175" cy="174.999" r="139.481"/>
<circle fill="#CCCCCC" stroke="#666666" stroke-miterlimit="10" cx="175" cy="175" r="108.485"/>
<circle fill="#FFFFFF" stroke="#666666" stroke-miterlimit="10" cx="175.054" cy="175.114" r="77.489"/>
<path fill="#FFFFFF" d="M241.233,142.72c2.669,5.764,0.159,12.599-5.604,15.268l0,0c-5.763,2.669-12.599,0.161-15.268-5.603l0,0
	c-2.669-5.764-0.16-12.6,5.603-15.268l0,0C231.729,134.447,238.564,136.956,241.233,142.72L241.233,142.72z"/>
<path fill="#FFFFFF" d="M325.624,103.641c2.669,5.764,0.159,12.6-5.603,15.268l0,0c-5.764,2.669-12.6,0.16-15.269-5.604l0,0
	c-2.669-5.763-0.159-12.599,5.604-15.268l0,0C316.119,95.369,322.955,97.877,325.624,103.641L325.624,103.641z"/>
<path fill="#FFFFFF" d="M297.494,116.667c2.669,5.764,0.159,12.599-5.604,15.268l0,0c-5.763,2.669-12.599,0.161-15.268-5.603l0,0
	c-2.669-5.764-0.16-12.6,5.603-15.268l0,0C287.988,108.396,294.825,110.903,297.494,116.667L297.494,116.667z"/>
<path fill="#FFFFFF" d="M269.363,129.693c2.669,5.764,0.16,12.6-5.603,15.268l0,0c-5.763,2.668-12.6,0.16-15.269-5.604l0,0
	c-2.669-5.764-0.159-12.599,5.604-15.268l0,0C259.858,121.422,266.694,123.93,269.363,129.693L269.363,129.693z"/>
<text transform="matrix(1 0 0 1 223.7197 154.4717)" fill="#666666" font-family="'Courier'" font-size="24">1</text>
<text transform="matrix(1 0 0 1 252.5615 140.9199)" fill="#666666" font-family="'Courier'" font-size="24">2</text>
<text transform="matrix(1 0 0 1 279.917 128.2529)" fill="#666666" font-family="'Courier'" font-size="24">3</text>
<text transform="matrix(1 0 0 1 307.5801 114.9385)" fill="#666666" font-family="'Courier'" font-size="24">4</text>
</svg>
