<?xml version="1.0" encoding="utf-8"?>
<!-- Generator: Adobe Illustrator 16.0.4, SVG Export Plug-In . SVG Version: 6.00 Build 0)  -->
<svg version="1.2" baseProfile="tiny" id="Layer_1" xmlns="http://www.w3.org/2000/svg" xmlns:xlink="http://www.w3.org/1999/xlink"
	 x="0px" y="0px" width="350px" height="350px" viewBox="0 0 350 350" xml:space="preserve">
<circle fill="none" stroke="#808080" stroke-miterlimit="10" cx="171.01" cy="175.114" r="117.184"/>
<g>
	<g>
		<circle fill="#FFFFFF" stroke="#666666" stroke-miterlimit="10" cx="197.586" cy="178.167" r="24.173"/>
		<circle fill="#FFFFFF" stroke="#666666" stroke-miterlimit="10" cx="197.586" cy="178.167" r="24.173"/>
	</g>
	<g>
		<path fill="#CCCCCC" stroke="#666666" stroke-miterlimit="10" d="M212.351,192.356c0,13.349-10.822,24.172-24.174,24.172
			c-13.351,0-24.173-10.823-24.173-24.172c0-13.353,10.822-24.175,24.173-24.175C201.528,168.182,212.351,179.004,212.351,192.356z"
			/>
		<path fill="#CCCCCC" stroke="#666666" stroke-miterlimit="10" d="M212.351,192.356c0,13.349-10.822,24.172-24.174,24.172
			c-13.351,0-24.173-10.823-24.173-24.172c0-13.353,10.822-24.175,24.173-24.175C201.528,168.182,212.351,179.004,212.351,192.356z"
			/>
	</g>
	<g>
		<g>
			<path fill="#CCCCCC" d="M188.177,183.966c-13.604,0-24.673-11.068-24.673-24.673s11.068-24.673,24.673-24.673
				c13.605,0,24.674,11.068,24.674,24.673S201.782,183.966,188.177,183.966z"/>
			<path fill="#FFFFFF" d="M188.177,135.12c13.352,0,24.174,10.822,24.174,24.173s-10.822,24.173-24.174,24.173
				c-13.351,0-24.173-10.822-24.173-24.173S174.826,135.12,188.177,135.12 M188.177,134.12c-13.88,0-25.173,11.292-25.173,25.173
				s11.292,25.173,25.173,25.173c13.881,0,25.174-11.292,25.174-25.173S202.058,134.12,188.177,134.12L188.177,134.12z"/>
		</g>
		<g>
			<path fill="#CCCCCC" d="M188.177,183.966c-13.604,0-24.673-11.068-24.673-24.673s11.068-24.673,24.673-24.673
				c13.605,0,24.674,11.068,24.674,24.673S201.782,183.966,188.177,183.966z"/>
			<path fill="#666666" d="M188.177,135.12c13.352,0,24.174,10.822,24.174,24.173s-10.822,24.173-24.174,24.173
				c-13.351,0-24.173-10.822-24.173-24.173S174.826,135.12,188.177,135.12 M188.177,134.12c-13.88,0-25.173,11.292-25.173,25.173
				s11.292,25.173,25.173,25.173c13.881,0,25.174-11.292,25.174-25.173S202.058,134.12,188.177,134.12L188.177,134.12z"/>
		</g>
	</g>
	<g>
		<circle fill="#CCCCCC" stroke="#666666" stroke-miterlimit="10" cx="144.434" cy="175.869" r="24.173"/>
		<circle fill="#CCCCCC" stroke="#666666" stroke-miterlimit="10" cx="144.434" cy="175.869" r="24.173"/>
	</g>
	<g>
		<circle fill="#FFFFFF" stroke="#666666" stroke-miterlimit="10" cx="153.729" cy="193.7" r="24.173"/>
		<circle fill="#FFFFFF" stroke="#666666" stroke-miterlimit="10" cx="153.729" cy="193.7" r="24.173"/>
	</g>
	<g>
		<circle fill="#FFFFFF" stroke="#666666" stroke-miterlimit="10" cx="153.729" cy="156.527" r="24.173"/>
		<circle fill="#FFFFFF" stroke="#666666" stroke-miterlimit="10" cx="153.729" cy="156.527" r="24.173"/>
	</g>
</g>
<circle fill="none" stroke="#808080" stroke-miterlimit="10" cx="171.011" cy="175.114" r="162.998"/>
<g>
	<path fill="#CCCCCC" d="M93.447,94.885c-4.411,0-8-3.589-8-8s3.589-8,8-8s8,3.589,8,8S97.858,94.885,93.447,94.885z"/>
	<path fill="#666666" d="M93.447,79.385c4.146,0,7.5,3.36,7.5,7.5c0,4.143-3.354,7.5-7.5,7.5s-7.5-3.357-7.5-7.5
		C85.947,82.745,89.302,79.385,93.447,79.385 M93.447,78.385c-4.687,0-8.5,3.813-8.5,8.5s3.813,8.5,8.5,8.5s8.5-3.813,8.5-8.5
		S98.134,78.385,93.447,78.385L93.447,78.385z"/>
</g>
<g>
	<path fill="#CCCCCC" d="M259.669,260.645c-4.412,0-8.001-3.588-8.001-7.999c0-4.412,3.589-8.001,8.001-8.001
		c4.411,0,7.999,3.589,7.999,8.001C267.668,257.057,264.08,260.645,259.669,260.645z"/>
	<path fill="#666666" d="M259.669,245.145c4.142,0,7.499,3.36,7.499,7.501c0,4.142-3.357,7.499-7.499,7.499
		c-4.143,0-7.501-3.357-7.501-7.499C252.168,248.505,255.526,245.145,259.669,245.145 M259.669,244.145
		c-4.688,0-8.501,3.813-8.501,8.501c0,4.687,3.813,8.499,8.501,8.499c4.687,0,8.499-3.812,8.499-8.499
		C268.168,247.958,264.355,244.145,259.669,244.145L259.669,244.145z"/>
</g>
<g>
	<path fill="#CCCCCC" d="M322.521,122.052c-4.412,0-8.002-3.589-8.002-8s3.59-8,8.002-8c4.41,0,7.998,3.589,7.998,8
		S326.932,122.052,322.521,122.052z"/>
	<path fill="#666666" d="M322.521,106.552c4.141,0,7.498,3.358,7.498,7.5c0,4.143-3.357,7.5-7.498,7.5
		c-4.145,0-7.502-3.357-7.502-7.5C315.02,109.91,318.377,106.552,322.521,106.552 M322.521,105.552c-4.688,0-8.502,3.813-8.502,8.5
		s3.814,8.5,8.502,8.5c4.686,0,8.498-3.813,8.498-8.5S327.208,105.552,322.521,105.552L322.521,105.552z"/>
</g>
<text transform="matrix(1 0 0 1 70.4976 81.8193)" fill="#666666" font-family="'Courier'" font-size="24">1</text>
<text transform="matrix(1 0 0 1 147.1006 162.4863)" fill="#666666" font-family="'Courier'" font-size="24">2</text>
<text transform="matrix(1 0 0 1 181.5488 165.252)" fill="#666666" font-family="'Courier'" font-size="24">3</text>
<text transform="matrix(1 0 0 1 102.8823 183.4658)" fill="#666666" font-family="'Courier'" font-size="24">3</text>
<text transform="matrix(1 0 0 1 181.5488 202.3408)" fill="#666666" font-family="'Courier'" font-size="24">3</text>
<text transform="matrix(1 0 0 1 221.7598 183.4658)" fill="#666666" font-family="'Courier'" font-size="24">2</text>
<text transform="matrix(1 0 0 1 147.1006 202.3408)" fill="#666666" font-family="'Courier'" font-size="24">2</text>
<text transform="matrix(1 0 0 1 327.585 108.9863)" fill="#666666" font-family="'Courier'" font-size="24">1</text>
<text transform="matrix(1 0 0 1 269.585 268.3203)" fill="#666666" font-family="'Courier'" font-size="24">1</text>
</svg>
