<?xml version="1.0" encoding="utf-8"?>
<!-- Generator: Adobe Illustrator 16.0.4, SVG Export Plug-In . SVG Version: 6.00 Build 0)  -->
<svg version="1.2" baseProfile="tiny" id="Layer_1" xmlns="http://www.w3.org/2000/svg" xmlns:xlink="http://www.w3.org/1999/xlink"
	 x="0px" y="0px" width="350px" height="350px" viewBox="0 0 350 350" xml:space="preserve">
<circle fill="none" stroke="#231F20" stroke-miterlimit="10" cx="171.01" cy="175" r="117.184"/>
<g>
	<g>
		<circle fill="#FFFFFF" cx="197.586" cy="178.053" r="24.173"/>
		<circle fill="#FFFFFF" stroke="#231F20" stroke-miterlimit="10" cx="197.586" cy="178.053" r="24.173"/>
	</g>
	<g>
		<path d="M212.351,192.242c0,13.349-10.822,24.172-24.174,24.172c-13.351,0-24.173-10.823-24.173-24.172
			c0-13.353,10.822-24.175,24.173-24.175C201.528,168.067,212.351,178.89,212.351,192.242z"/>
		<path stroke="#231F20" stroke-miterlimit="10" d="M212.351,192.242c0,13.349-10.822,24.172-24.174,24.172
			c-13.351,0-24.173-10.823-24.173-24.172c0-13.353,10.822-24.175,24.173-24.175C201.528,168.067,212.351,178.89,212.351,192.242z"
			/>
	</g>
	<g>
		<g>
			<path d="M188.177,183.852c-13.604,0-24.673-11.068-24.673-24.673s11.068-24.673,24.673-24.673
				c13.605,0,24.674,11.068,24.674,24.673S201.782,183.852,188.177,183.852z"/>
			<path fill="#FFFFFF" d="M188.177,135.006c13.352,0,24.174,10.822,24.174,24.173s-10.822,24.173-24.174,24.173
				c-13.351,0-24.173-10.822-24.173-24.173S174.826,135.006,188.177,135.006 M188.177,134.006c-13.88,0-25.173,11.292-25.173,25.173
				s11.292,25.173,25.173,25.173c13.881,0,25.174-11.292,25.174-25.173S202.058,134.006,188.177,134.006L188.177,134.006z"/>
		</g>
		<g>
			<path d="M188.177,183.852c-13.604,0-24.673-11.068-24.673-24.673s11.068-24.673,24.673-24.673
				c13.605,0,24.674,11.068,24.674,24.673S201.782,183.852,188.177,183.852z"/>
			<path fill="#FFFFFF" d="M188.177,135.006c13.352,0,24.174,10.822,24.174,24.173s-10.822,24.173-24.174,24.173
				c-13.351,0-24.173-10.822-24.173-24.173S174.826,135.006,188.177,135.006 M188.177,134.006c-13.88,0-25.173,11.292-25.173,25.173
				s11.292,25.173,25.173,25.173c13.881,0,25.174-11.292,25.174-25.173S202.058,134.006,188.177,134.006L188.177,134.006z"/>
		</g>
	</g>
	<g>
		<circle cx="144.434" cy="175.755" r="24.173"/>
		<circle stroke="#231F20" stroke-miterlimit="10" cx="144.434" cy="175.755" r="24.173"/>
	</g>
	<g>
		<circle fill="#FFFFFF" cx="153.729" cy="193.586" r="24.173"/>
		<circle fill="#FFFFFF" stroke="#231F20" stroke-miterlimit="10" cx="153.729" cy="193.586" r="24.173"/>
	</g>
	<g>
		<circle fill="#FFFFFF" cx="153.729" cy="156.413" r="24.173"/>
		<circle fill="#FFFFFF" stroke="#231F20" stroke-miterlimit="10" cx="153.729" cy="156.413" r="24.173"/>
	</g>
</g>
<circle fill="none" stroke="#231F20" stroke-miterlimit="10" cx="171.011" cy="175" r="162.998"/>
<g>
	<path d="M93.447,95.771c-4.962,0-9-4.038-9-9s4.038-9,9-9s9,4.038,9,9S98.41,95.771,93.447,95.771z"/>
	<path fill="#FFFFFF" d="M93.447,79.271c4.146,0,7.5,3.36,7.5,7.5c0,4.143-3.354,7.5-7.5,7.5s-7.5-3.357-7.5-7.5
		C85.947,82.631,89.302,79.271,93.447,79.271 M93.447,76.271c-5.79,0-10.5,4.71-10.5,10.5s4.71,10.5,10.5,10.5s10.5-4.71,10.5-10.5
		S99.237,76.271,93.447,76.271L93.447,76.271z"/>
</g>
<g>
	<path d="M259.669,261.53c-4.963,0-9.001-4.037-9.001-8.999c0-4.963,4.038-9.001,9.001-9.001c4.962,0,8.999,4.038,8.999,9.001
		C268.668,257.493,264.631,261.53,259.669,261.53z"/>
	<path fill="#FFFFFF" d="M259.669,245.03c4.142,0,7.499,3.36,7.499,7.501c0,4.142-3.357,7.499-7.499,7.499
		c-4.143,0-7.501-3.357-7.501-7.499C252.168,248.391,255.526,245.03,259.669,245.03 M259.669,242.03
		c-5.79,0-10.501,4.711-10.501,10.501c0,5.789,4.711,10.499,10.501,10.499c5.789,0,10.499-4.71,10.499-10.499
		C270.168,246.741,265.458,242.03,259.669,242.03L259.669,242.03z"/>
</g>
<g>
	<path d="M322.521,122.938c-4.964,0-9.002-4.038-9.002-9s4.038-9,9.002-9c4.961,0,8.998,4.038,8.998,9
		S327.483,122.938,322.521,122.938z"/>
	<path fill="#FFFFFF" d="M322.521,106.438c4.141,0,7.498,3.359,7.498,7.5c0,4.143-3.357,7.5-7.498,7.5
		c-4.145,0-7.502-3.357-7.502-7.5C315.02,109.796,318.377,106.438,322.521,106.438 M322.521,103.438
		c-5.791,0-10.502,4.71-10.502,10.5s4.711,10.5,10.502,10.5c5.789,0,10.498-4.71,10.498-10.5S328.31,103.438,322.521,103.438
		L322.521,103.438z"/>
</g>
<text transform="matrix(1 0 0 1 70.4976 81.7051)" fill="#231F20" font-family="'Courier'" font-size="24">1</text>
<text transform="matrix(1 0 0 1 147.1006 162.3721)" fill="#231F20" font-family="'Courier'" font-size="24">2</text>
<text transform="matrix(1 0 0 1 181.5488 165.1377)" fill="#FFFFFF" font-family="'Courier'" font-size="24">3</text>
<text transform="matrix(1 0 0 1 102.8823 183.3516)" fill="#231F20" font-family="'Courier'" font-size="24">3</text>
<text transform="matrix(1 0 0 1 181.5488 202.2266)" fill="#FFFFFF" font-family="'Courier'" font-size="24">3</text>
<text transform="matrix(1 0 0 1 221.7598 183.3516)" fill="#231F20" font-family="'Courier'" font-size="24">2</text>
<text transform="matrix(1 0 0 1 147.1006 202.2266)" fill="#231F20" font-family="'Courier'" font-size="24">2</text>
<text transform="matrix(1 0 0 1 327.585 108.8721)" fill="#231F20" font-family="'Courier'" font-size="24">1</text>
<text transform="matrix(1 0 0 1 269.585 268.2061)" fill="#231F20" font-family="'Courier'" font-size="24">1</text>
</svg>
